<svg width="auto" height="100%" viewBox="0 0 20 25" fill="none" xmlns="http://www.w3.org/2000/svg"><g clip-path="url(#clip0_2967_1690)"><path d="M19.9721 3.40039H10.1797C10.1797 5.79593 12.1608 7.74579 14.5948 7.74579H16.4061V9.44496C16.4061 11.8405 18.3872 13.7904 20.8212 13.7904V4.23605C20.8212 3.76251 20.4533 3.40039 19.9721 3.40039Z" fill="#1868DB"></path><path d="M15.1323 8.19141H5.33984C5.33984 10.5869 7.32098 12.5368 9.75494 12.5368H11.5663V14.2638C11.5663 16.6594 13.5474 18.6092 15.9814 18.6092V9.02706C15.9814 8.58138 15.6134 8.19141 15.1323 8.19141Z" fill="#1868DB"></path><path d="M10.2925 13.0107H0.5C0.5 15.4063 2.48113 17.3561 4.91509 17.3561H6.72641V19.0553C6.72641 21.4509 8.70755 23.4007 11.1415 23.4007V13.8464C11.1415 13.3729 10.7453 13.0107 10.2925 13.0107Z" fill="#1868DB"></path></g></svg>